HIERARCHY
ROOT Hips
{
	OFFSET 0.000000 0.000000 0.000000 
	CHANNELS 6 Xposition Yposition Zposition Zrotation Yrotation Xrotation
	JOINT LeftUpLeg
	{
		OFFSET 1.363060 -1.794630 0.839290 
		CHANNELS 3 Zrotation Yrotation Xrotation
		JOINT LeftLeg
		{
			OFFSET 2.448110 -6.726130 0.000000 
			CHANNELS 3 Zrotation Yrotation Xrotation
			JOINT LeftFoot
			{
				OFFSET 2.562200 -7.039590 0.000000 
				CHANNELS 3 Zrotation Yrotation Xrotation
				JOINT LeftToeBase
				{
					OFFSET 0.157640 -0.433110 2.322550 
					CHANNELS 3 Zrotation Yrotation Xrotation
					End Site
					{
						OFFSET 0.000000 0.000000 0.000000 
					}
				}
			}
		}
	}
	JOINT RightUpLeg
	{
		OFFSET -1.305520 -1.794630 0.839290 
		CHANNELS 3 Zrotation Yrotation Xrotation
		JOINT RightLeg
		{
			OFFSET -2.542530 -6.985550 0.000000 
			CHANNELS 3 Zrotation Yrotation Xrotation
			JOINT RightFoot
			{
				OFFSET -2.568260 -7.056230 0.000000 
				CHANNELS 3 Zrotation Yrotation Xrotation
				JOINT RightToeBase
				{
					OFFSET -0.164730 -0.452590 2.363150 
					CHANNELS 3 Zrotation Yrotation Xrotation
					End Site
					{
						OFFSET 0.000000 0.000000 0.000000 
					}
				}
			}
		}
	}
	JOINT Spine
	{
		OFFSET 0.028270 2.035590 -0.193380 
		CHANNELS 3 Zrotation Yrotation Xrotation
		JOINT Spine1
		{
			OFFSET 0.056720 2.048850 -0.042750 
			CHANNELS 3 Zrotation Yrotation Xrotation
			JOINT Neck1
			{
				OFFSET -0.054170 1.746240 0.172020 
				CHANNELS 3 Zrotation Yrotation Xrotation
				JOINT Head
				{
					OFFSET 0.104070 1.761360 -0.123970 
					CHANNELS 3 Zrotation Yrotation Xrotation
					End Site
					{
						OFFSET 0.000000 0.000000 0.000000 
					}
				}
			}
			JOINT LeftArm
			{
				OFFSET 3.362410 1.200890 -0.311210 
				CHANNELS 3 Zrotation Yrotation Xrotation
				JOINT LeftForeArm
				{
					OFFSET 4.983000 -0.000000 -0.000000 
					CHANNELS 3 Zrotation Yrotation Xrotation
					JOINT LeftHand
					{
						OFFSET 3.483560 -0.000000 -0.000000 
						CHANNELS 3 Zrotation Yrotation Xrotation
						JOINT LeftHandIndex1
						{
							OFFSET 0.715260 -0.000000 -0.000000 
							CHANNELS 3 Zrotation Yrotation Xrotation
							End Site
							{
								OFFSET 0.000000 0.000000 0.000000 
							}
						}
					}
				}
			}
			JOINT RightArm
			{
				OFFSET -3.136600 1.374050 -0.404650 
				CHANNELS 3 Zrotation Yrotation Xrotation
				JOINT RightForeArm
				{
					OFFSET -5.241900 -0.000000 -0.000000 
					CHANNELS 3 Zrotation Yrotation Xrotation
					JOINT RightHand
					{
						OFFSET -3.444170 -0.000000 -0.000000 
						CHANNELS 3 Zrotation Yrotation Xrotation
						JOINT RightHandIndex1
						{
							OFFSET -0.622530 -0.000000 -0.000000 
							CHANNELS 3 Zrotation Yrotation Xrotation
							End Site
							{
								OFFSET 0.000000 0.000000 0.000000 
							}
						}
					}
				}
			}
		}
	}
}
MOTION
Frames: 9
Frame Time: 0.041667
-0.184310 17.859945 -31.427286 -3.497599 7.520382 0.543472 -7.447994 -5.833281 -7.279972 0.418028 8.654681 22.359366 -3.435846 14.978325 -0.636585 0.136200 -2.378500 -6.553000 19.274872 -1.215440 -7.860639 -1.182595 -9.135348 23.768562 5.009655 -21.822336 -8.056966 -0.007900 0.575700 -1.581900 1.463462 -6.515551 -1.993995 -2.527015 -3.431643 -4.212841 -1.267331 0.883076 17.921454 -4.210400 0.892500 12.023800 -91.732514 7.048022 11.836369 19.306873 -29.308586 -4.581754 0.283382 0.481399 -10.447821 -7.125000 0.000000 0.000000 87.694679 -0.368390 14.161234 -12.228595 20.749917 -2.226722 -0.084350 -0.553836 -0.711406 7.125000 0.000000 0.000000 
-0.195817 17.866591 -31.412406 -3.477879 7.530539 0.925906 -7.374311 -5.931337 -7.567764 0.408787 8.624262 22.281747 -3.476132 15.104741 -0.586537 0.098900 -2.028000 -5.583100 19.294967 -1.019809 -8.144505 -1.174167 -9.115578 23.718407 5.039836 -21.918584 -8.086773 -0.008300 0.587200 -1.613700 1.532099 -6.417396 -2.098163 -2.406395 -3.377948 -4.035989 -1.356822 0.781718 17.926062 -4.263500 0.836100 12.035200 -91.735044 7.032292 11.986595 19.360398 -29.377911 -4.607959 0.289478 0.476306 -10.555630 -7.125000 0.000000 0.000000 87.653756 -0.444204 14.073591 -12.192299 20.695097 -2.213927 -0.082760 -0.552748 -0.678417 7.125000 0.000000 0.000000 
-0.209606 17.875420 -31.397923 -3.513211 7.521381 1.319643 -7.237948 -6.127384 -7.855225 0.410098 8.612624 22.259085 -3.551043 15.343109 -0.578124 0.117500 -2.210200 -6.086800 19.384379 -0.751745 -8.443104 -1.170208 -9.106883 23.705484 5.068005 -22.010406 -8.168366 -0.007600 0.562000 -1.544400 1.628732 -6.308211 -2.204910 -2.268403 -3.319517 -3.842340 -1.389510 0.682225 17.923249 -4.282100 0.782300 12.029700 -91.783273 7.014874 12.040526 19.406121 -29.438426 -4.629367 0.289448 0.475281 -10.579440 -7.125000 0.000000 0.000000 87.666642 -0.382638 13.724454 -12.064668 20.517407 -2.176688 -0.085147 -0.551922 -0.336885 7.125000 0.000000 0.000000 
-0.220121 17.878991 -31.384928 -3.484998 7.514222 1.673994 -7.171570 -6.009322 -8.226269 0.409595 8.601567 22.245875 -3.518252 15.220839 -0.476994 0.118500 -2.218900 -6.111100 19.385270 -0.579044 -8.721997 -1.169435 -9.098448 23.695958 5.092226 -22.083016 -8.162184 -0.008400 0.591000 -1.624100 1.493715 -6.237103 -2.262295 -2.515352 -3.293353 -3.749097 -0.898047 0.261817 18.054240 -4.083300 0.626000 12.100300 -91.491396 6.936275 12.146293 19.432056 -29.463961 -4.640779 0.292821 0.477765 -10.605141 -7.125000 0.000000 0.000000 87.997471 -0.354006 13.561423 -12.064225 20.535456 -2.177726 -0.086493 -0.550296 -0.299127 7.125000 0.000000 0.000000 
-0.228553 17.881967 -31.373917 -3.488841 7.514940 1.894817 -7.107666 -6.039614 -8.417666 0.412108 8.599874 22.249426 -3.532602 15.260522 -0.456565 0.123900 -2.269400 -6.250700 19.417835 -0.461541 -8.888161 -1.168301 -9.093422 23.690084 5.107240 -22.130232 -8.186110 -0.008600 0.597900 -1.643100 1.460707 -6.167332 -2.307742 -2.585948 -3.261818 -3.674627 -0.700675 0.035394 18.117305 -4.006700 0.534800 12.139400 -91.379299 6.888084 12.218400 19.458933 -29.495644 -4.653165 0.295052 0.477169 -10.646325 -7.125000 0.000000 0.000000 88.145918 -0.326198 13.390865 -12.022374 20.485079 -2.165891 -0.088263 -0.548884 -0.179396 7.125000 0.000000 0.000000 
-0.234604 17.883356 -31.364791 -3.494192 7.515766 2.024595 -7.065133 -6.063962 -8.526009 0.415614 8.603336 22.264091 -3.543461 15.291342 -0.454573 0.132300 -2.344100 -6.457600 19.444231 -0.397498 -8.991900 -1.171323 -9.098235 23.712015 5.113116 -22.147839 -8.218481 -0.008700 0.603100 -1.657200 1.426459 -6.112709 -2.333334 -2.656046 -3.238117 -3.641275 -0.528708 -0.154494 18.181297 -3.938400 0.458900 12.181200 -91.291074 6.846211 12.257934 19.475872 -29.515074 -4.660825 0.296445 0.476724 -10.684784 -7.125000 0.000000 0.000000 88.279665 -0.295519 13.258671 -11.989200 20.446351 -2.156747 -0.090204 -0.547334 -0.080854 7.125000 0.000000 0.000000 
-0.238473 17.883257 -31.356657 -3.490865 7.517898 2.080418 -7.051448 -6.080432 -8.555670 0.416935 8.605193 22.270127 -3.551548 15.316696 -0.462119 0.138500 -2.398600 -6.608500 19.453862 -0.390290 -9.030033 -1.172985 -9.101306 23.724607 5.111611 -22.141627 -8.238339 -0.008900 0.608400 -1.671700 1.400972 -6.080943 -2.347227 -2.703444 -3.225092 -3.635830 -0.422846 -0.271270 18.231163 -3.894700 0.411500 12.217600 -91.250685 6.827660 12.244630 19.481268 -29.520999 -4.663259 0.297253 0.476018 -10.721017 -7.125000 0.000000 0.000000 88.373769 -0.279578 13.209509 -11.971767 20.427362 -2.151851 -0.091621 -0.546169 -0.029160 7.125000 0.000000 0.000000 
-0.240159 17.882364 -31.348919 -3.465780 7.523966 2.075707 -7.079524 -6.104618 -8.510368 0.416042 8.605888 22.268221 -3.561053 15.351033 -0.484111 0.144200 -2.447300 -6.743500 19.431379 -0.439038 -9.020318 -1.175455 -9.107297 23.743970 5.100262 -22.101887 -8.262881 -0.008900 0.607900 -1.670600 1.387346 -6.062207 -2.349631 -2.711668 -3.216737 -3.641160 -0.384421 -0.328172 18.263882 -3.877300 0.385700 12.244800 -91.256795 6.818495 12.204737 19.466715 -29.503256 -4.656663 0.297438 0.475342 -10.747023 -7.125000 0.000000 0.000000 88.425036 -0.274021 13.207388 -11.966987 20.423671 -2.150616 -0.092305 -0.545606 -0.011624 7.125000 0.000000 0.000000 
-0.241746 17.881471 -31.340686 -3.433231 7.539335 2.067616 -7.113818 -6.116568 -8.458508 0.412723 8.601748 22.252485 -3.564173 15.365037 -0.494087 0.146300 -2.464600 -6.791600 19.402844 -0.490492 -9.006186 -1.178656 -9.115158 23.768480 5.090025 -22.066772 -8.300095 -0.008800 0.604700 -1.661600 1.395422 -6.069232 -2.359294 -2.675826 -3.219537 -3.639927 -0.409962 -0.310126 18.285762 -3.882600 0.389100 12.265700 -91.311494 6.834037 12.111629 19.436061 -29.466640 -4.643081 0.297646 0.474426 -10.756943 -7.125000 0.000000 0.000000 88.433776 -0.286398 13.287248 -11.976538 20.437769 -2.153285 -0.092263 -0.545701 -0.036493 7.125000 0.000000 0.000000 
